<svg viewBox="0 0 6250 6250" xmlns="http://www.w3.org/2000/svg" xml:space="preserve" style="fill-rule:evenodd;clip-rule:evenodd;stroke-linejoin:round;stroke-miterlimit:2"><path d="M1141.78 1142.24c-12.72.31-124.91 3.14-148.006 8.86-16.389 4.09-46.194-3.14-56.295-6.26-5.162-1.63-10.676 1.28-12.279 6.46a9.805 9.805 0 0 0 6.458 12.28c1.35.42 27.158 8.35 50.275 8.35 5.844 0 11.512-.51 16.574-1.78 17.763-4.39 109.783-7.46 143.743-8.27 5.42-.13 9.71-4.63 9.58-10.06-.13-5.42-4.68-9.65-10.05-9.58Z" style="fill:#fff;fill-rule:nonzero" transform="scale(4.16667)"/><path d="m1124.34 816.237-360.425 16.122M824.409 826.905l50.129-107.698M874.538 827.404l84.113-105.765M958.651 823.638l58.229-84.374M1026.18 820.624 1059.03 761M1026.18 820.624l40.19 54.018M958.651 823.638l52.779 86.153M874.538 827.404l38.316 68.475M824.409 826.905l24.552 77.952M418.138 832.359h316.478M664.289 832.359 626.01 730.015M598.356 832.359l-21.98-103.679M535.357 832.359l-50.703-65.714M535.357 832.359l-50.703 73.828M598.356 832.359l-55.932 85.594M664.289 832.359l-43.072 73.827M840.104 727.468l6.59 1.533" style="fill:none;fill-rule:nonzero" transform="scale(4.16667)"/><path d="m1068.08 860.497-22.98-30.887 57.59-2.576c-8.13 9.082-19.76 20.976-34.61 33.463Zm-92.355-27.784 45.695-2.044 31.27 42.04c-11.23 8.374-23.84 16.628-37.69 24.115l-39.275-64.111Zm-201.994-32.989v-10.3c10.256-9.109 44.754-38.204 82.297-53.697l-39.303 84.44-42.994 1.923v-22.366Zm-24.466-24.466c-3.037 0-5.916.625-8.602 1.642-7.636-9.332-39.242-43.016-102.675-54.795-32.029-51.316-42.631-97.979-31.452-138.708 9.169-33.405 31.419-55.904 47.134-68.245-2.932 30.646-.46 58.619 6.99 83.947.094.607.317 1.155.522 1.735 5.971 19.577 14.87 37.597 27.067 53.768 38.541 51.097 97.596 71.17 129.171 78.596-30.747 18.082-54.277 39.208-59.238 43.799-2.771-1.09-5.764-1.739-8.917-1.739Zm-42.271 142.935c7.131-5.152 13.007-10.477 17.805-15.592v28.224c-3.528-3.078-9.415-7.707-17.805-12.632Zm-272.483-76.017h82.194l-34.613 50.398c-24.571-17.463-39.625-37.476-47.581-50.398Zm48.281-61.871 32.59 42.236h-76.834c9.754-11.309 24.927-27.213 44.244-42.236Zm242.007 19.419v22.817h-53.701l-29.849-79.807c50.925 11.233 76.725 37.682 83.55 45.762v11.228Zm-105.891-60.669 31.228 83.486h-43.827l-17.993-84.864c1.364-.041 2.719-.116 4.092-.116 9.411 0 18.184.574 26.5 1.494Zm-50.244.581 17.577 82.905h-46.057l-41.443-53.71c20.264-13.422 43.927-24.722 69.923-29.195Zm-42.889 175.986-2.643-1.205c-8.874-3.347-16.939-7.223-24.406-11.378l41.799-60.863h39.69l-46.008 70.407c-.107.165-.112.357-.209.525-2.715.826-5.452 1.663-8.223 2.514Zm36.904-10.719 40.989-62.727h43.528l-31.732 54.391c-17.874.584-35.075 3.742-52.785 8.336Zm123.777 3.325c-13.087-5.172-29.314-9.443-48.601-11.082l32.071-54.97h54.873v26.729c-2.443 5.284-12.574 24.19-38.291 39.276-.022.013-.031.035-.052.047Zm-169.11-262.327c0-34.912 16.942-62.22 50.358-81.165 10.64-6.031 21.352-10.237 30.351-13.132-4.106 8.013-7.72 16.713-10.378 26.321-11.764 42.516-3.115 89.845 25.56 140.865-6.675-.526-13.572-.863-20.829-.863-16.348 0-31.952 2.537-46.66 6.833-18.769-24.082-28.402-50.56-28.402-78.859Zm76.175-178.424c15.991-19.668 37.029-29.444 56.31-26.111 9.229 1.591 17.102 6.059 23.223 12.893.081.109.192.191.278.297a46.948 46.948 0 0 1 6.22 9.002c-3.602 2.163-7.754 4.932-11.183 7.961-5.791 5.166-8.9 12.226-10.449 16.864-8.067 4.719-27.224 17.35-44.268 38.921-7.631 1.527-24.854 5.652-43.807 14.559-.752-16.815 1.626-47.261 23.676-74.386Zm182.849-54.964c44.907 0 70.848 24.445 82.335 38.986-23.457-.404-41.58 3.285-43.112 3.615-.243.052-.421.216-.656.284-.347.101-.693.143-1.03.282-.203.087-.357.256-.554.355-.091.045-.168.116-.257.164-.583.312-1.129.626-1.629 1.041-.195.161-.438.218-.622.397a182.038 182.038 0 0 1-15.878 13.603c-8.22-21.045-23.501-32.965-43.5-32.965-26.962 0-42.652 13.676-50.859 24.489-2.04-5.315-4.539-10.236-7.526-14.653 8.681-10.997 33.619-35.598 83.288-35.598Zm180.276 138.341c-.45 13.566-5.535 26.089-14.708 36.987-11.028-67.314-56.655-95.534-66.275-100.761-1.91-4.45-4.538-8.537-7.893-12.232a46.934 46.934 0 0 0-3.474-3.44c21.292 1.053 45.943 6.106 63.926 21.502 18.745 16.049 29.106 37.167 28.424 57.944Zm29.681 100.155c0 24.067-14.315 47.123-36.497 59.049-10.608-1.668-21.676-2.836-33.188-3.433 15.075-17.215 27.786-44.699 27.786-88.565 0-1.764-.178-3.356-.223-5.078 6.304-5.211 11.807-10.904 16.322-17.059 9.755 9.16 25.8 28.282 25.8 55.086Zm76.103 124.162c17.64 11.778 31.16 23.421 40.22 32.207l-59.43 2.658 19.21-34.865Zm-42.23-23.429c9.12 4.137 17.67 8.508 25.54 13.039l-25.5 46.283-42.288 1.892 42.248-61.214Zm-57.651-19.226c13.969 3.049 26.95 7.033 39.091 11.556l-48.296 69.985-57.694 2.58 66.899-84.121ZM746.06 632.809c20.347 0 37.497-5.331 50.819-11.804 48.942-23.783 78.789-77.329 82.126-107.867 17.559 14.324 45.789 46.428 45.789 104.922 0 42.444-13.269 73.169-38.372 88.854-.056.034-.082.093-.137.129-4.858.626-9.723 1.637-14.581 2.854-.24.074-.481.106-.716.197-8.488 2.174-16.895 5.125-25.11 8.64l-3.549-.826c-.18-.043-.351.015-.53-.017-.207-.037-.379-.155-.59-.179-.882-.099-89.053-10.848-137.375-75.055a150.226 150.226 0 0 1-14.327-23.159c20.785 9.596 39.772 13.311 56.553 13.311Zm-73.92-95.675c15.155 12.67 39.327 28.872 64.773 29.804 16.547.54 31.143-5.124 43.56-17.012 33.333-31.906 43.081-59.639 45.887-74.43 8.046 1.369 19.719 4.663 26.875 12.547 5.093 5.611 7.187 12.828 6.397 22.055-1.887 21.942-27.343 71.868-71.336 93.248-33.91 16.486-70.763 12.396-109.552-12.025-4.649-16.711-6.87-34.785-6.604-54.187Zm41.705-59.065c4.428-7.134 15.522-20.16 37.622-20.16 15.231 0 22.82 11.989 26.65 24.245-13.352 7.062-26.023 9.949-37.86 8.29-11.025-1.552-19.885-6.845-26.412-12.375Zm-32.438 8.13c2.153-1.904 5.034-3.837 7.756-5.492 7.816 9.835 23.826 25.626 48.091 29.142 3.264.471 6.547.709 9.859.709 17.118 0 34.919-6.453 53.186-18.98-5.709 11.983-15.718 27.239-33.402 44.167-8.551 8.184-18.172 11.957-29.221 11.574-27.229-.973-54.969-26.358-63.887-35.255.57-5.016 1.237-10.081 2.104-15.25.342-1.604 2.152-7.611 5.514-10.615Zm157.427 332.979 42.556-91.426c6.089-1.238 12.14-1.986 18.055-1.986 14.393 0 28.071 1.058 41.104 2.868l-70.916 89.167-30.799 1.377Zm294.746.21c.39-1.133.59-2.303.55-3.482 0-.037.02-.069.02-.106-.01-.186-.12-.337-.13-.52a9.598 9.598 0 0 0-.71-2.82c-.17-.398-.39-.739-.6-1.108-.22-.375-.35-.786-.62-1.136-2.69-3.454-55.58-70.075-155.897-94.881 18.487-16.442 29.767-39.926 29.767-64.326 0-37.555-23.866-62.574-35.51-72.558 3.525-8.558 5.509-17.613 5.815-26.949.881-26.767-11.973-53.557-35.273-73.51-16.817-14.394-37.681-21.366-57.547-24.441-.096-.224-.084-.465-.198-.684-1.281-2.451-32.183-59.989-106.877-59.989-54.574 0-84.32 26.073-96.82 40.842-7.619-5.905-16.489-9.998-26.382-11.705-26.357-4.571-54.352 7.819-74.879 33.076-30.872 37.977-29.321 80.753-27.295 97.123-27.608 17.658-53.283 46.694-53.283 93.687 0 30.761 9.596 59.555 28.541 85.777-68.769 28.476-113.751 91.617-116.155 95.051-.326.463-.544.974-.782 1.476-.078.167-.183.308-.252.48-.431 1.063-.63 2.183-.67 3.321-.005.124-.073.228-.073.353 0 .138.074.251.079.388.044 1.111.207 2.219.635 3.278a11.181 11.181 0 0 1 .079.186c1.441 3.53 24.141 56.561 87.829 88.102-38.128 11.053-81.92 21.104-138.958 21.104-5.421 0-9.817 4.395-9.817 9.818 0 5.422 4.396 9.817 9.817 9.817 73.752 0 125.661-15.945 171.456-30.019 33.233-10.208 61.933-19.029 91.776-19.029 61.871 0 92.903 31.645 93.386 32.144l20.616 20.608a9.784 9.784 0 0 0 6.941 2.877 9.792 9.792 0 0 0 6.945-2.877c3.831-3.834 3.831-10.054-.003-13.882l-4.667-4.665V799.724a4.838 4.838 0 0 1 4.831-4.831 4.838 4.838 0 0 1 4.832 4.831v143.193a9.816 9.816 0 0 0 9.817 9.817 9.815 9.815 0 0 0 9.817-9.817v-40.3c6.633 7.069 15.287 14.571 26.507 21.395 4.64 2.807 10.676 1.349 13.491-3.291 2.815-4.632 1.342-10.668-3.291-13.491-24.274-14.756-34.275-33.21-36.707-38.356v-27.125l44.436-1.988 21.432 68.052c1.319 4.188 5.192 6.865 9.364 6.865.975 0 1.972-.146 2.953-.453 5.17-1.626 8.038-7.141 6.412-12.317l-19.858-63.055 30.466-1.363 35.349 63.183a9.812 9.812 0 0 0 8.574 5.023 9.751 9.751 0 0 0 4.787-1.25c4.732-2.646 6.419-8.628 3.773-13.361l-30.534-54.576 62.432-2.793 44.004 71.835c-2.487 1.125-4.948 2.274-7.504 3.336-5.008 2.078-7.379 7.823-5.299 12.831a9.826 9.826 0 0 0 9.073 6.051 9.72 9.72 0 0 0 3.758-.751c6.471-2.69 12.661-5.615 18.701-8.637.17-.089.35-.122.51-.221.04-.026.06-.069.1-.095 72.55-36.47 113.82-93.524 115.67-96.137.35-.48.52-1.025.76-1.544.17-.339.37-.637.49-.996ZM517.76 1199.28c-57.703-74.28-157.486-55.23-161.704-54.4-5.32 1.06-8.763 6.24-7.697 11.55 1.07 5.32 6.278 8.75 11.554 7.7.925-.17 92.022-17.58 142.342 47.2 4.322 5.56 9.28 10.89 14.729 15.86a9.777 9.777 0 0 0 6.612 2.57 9.815 9.815 0 0 0 7.259-3.21c3.651-4 3.364-10.22-.64-13.87-4.629-4.22-8.82-8.73-12.455-13.4ZM933.721 1139.43l-2.669-2.62c-6.373-6.36-75.914-75.9-128.69-128.67-3.835-3.83-10.047-3.83-13.882 0-3.834 3.84-3.834 10.05 0 13.88 52.775 52.79 122.332 122.33 128.698 128.68l2.814 2.77c10.094 9.87 36.914 36.11 37.022 55.84.023 4.88-1.657 8.84-5.3 12.48-5.284 5.29-11.129 7.65-17.226 7.75-13.549-.15-26.259-11.75-28.984-14.4-5.655-5.9-11.393-11-15.822-14.91-1.949-1.73-3.536-3.12-4.526-4.11l-42.435-42.43-13.883 13.88 42.436 42.44c1.189 1.19 3.069 2.86 5.4 4.93 9.142 8.08 30.556 27.01 30.993 41.29.107 3.54-1.22 6.57-4.164 9.52-4.533 4.52-9.166 6.67-14.128 6.38-10.108-.46-20.332-10.22-23.416-13.93-.015-.02-.037-.02-.053-.04-2.73-3.6-5.771-7.23-9.503-10.96l-51.057-51.08-13.882 13.88 51.057 51.09c8.322 8.3 13.361 15.88 14.979 22.5 1.626 6.64-.246 12.19-6.06 18-9.678 9.67-24.097 2.69-28.98-.14-2.363-4.01-5.18-7.85-8.616-11.28-11.865-11.86-42.283-46.12-42.59-46.46-3.605-4.07-9.81-4.44-13.859-.82-4.053 3.59-4.421 9.8-.821 13.86 1.266 1.41 31.109 35.03 43.388 47.31 5.061 5.05 8.506 11.4 9.449 17.4 1.012 6.41-.806 11.83-5.538 16.57-1.963 1.96-4.195 2.66-7.102 2.81-6.588-.05-22.096-4.73-51.866-35.45-3.766-3.9-9.982-3.98-13.879-.22-3.895 3.78-3.992 9.99-.218 13.88 26.871 27.74 48.4 41.28 65.81 41.42h.261c8.06 0 15.269-2.95 20.877-8.56 7.497-7.5 11.417-16.91 11.483-26.99 3.268.72 6.676 1.18 10.16 1.18 8.859 0 18.07-2.77 25.924-10.63 7.745-7.74 11.868-16.57 12.287-25.95 3.389 1.14 6.93 2.03 10.73 2.22.59.03 1.181.05 1.764.05 9.909 0 19.312-4.18 27.281-12.16 6.757-6.75 10.178-15.05 9.901-24-.075-2.46-.469-4.9-1.046-7.31 2.568.5 5.205.82 7.91.86h.607c11.504 0 21.881-4.54 30.84-13.5 7.385-7.38 11.105-16.29 11.051-26.48-.153-27.92-30.127-57.25-42.927-69.77Z" style="fill:#fff;fill-rule:nonzero" transform="scale(4.16667)"/><path d="M734.632 1291.27c-10.619 26.46-45.033 60.24-61.369 60.23-2.072 0-3.031-.61-3.831-1.53-7.513-8.64 5.039-32.43 30.517-57.87 11.428-11.42 22.695-18.24 30.13-18.24 2.531 0 4.491.79 6.347 2.57 1.45 1.38 1.504 6.62-1.794 14.84Zm-123.859 31.14c-12.291-12.28 10.262-45.86 38.057-73.69 4.171-4.16 9.681-9.67 15.664-14.94.253-.25.577-.38.807-.66l.085-.11c9.871-8.58 20.897-16.33 29.309-16.33 2.93 0 5.246 1.02 7.513 3.3 3.624 3.64 5.304 7.57 5.288 12.38-.069 19.23-26.69 45.61-38.06 56.88l-2.747 2.72c-1.391 1.4-2.899 2.95-4.513 4.61-10.906 11.19-29.156 29.92-42.459 29.92-3.325-.01-6.167-1.3-8.944-4.08Zm-45.143-37.52c-11.432-11.42 9.943-43.07 36.185-69.35 26.257-26.22 42.36-33.84 52.223-24.72 3.725 3.44 11.346 10.56-3.16 28.87-5.382 4.78-10.707 9.93-15.934 15.15-11.848 11.86-26.442 28.24-36.295 45.15-8.228 6.93-22.363 15.56-33.019 4.9Zm-36.036-40.63c-5.001-5 .621-16.47 4.422-22.86 7.385-12.42 18.759-24.55 24.876-30.67l2.515-2.52c8.281-8.34 22.139-22.29 30.533-22.29 1.059 0 2.367.22 4.05 1.82 1.734 1.65 2.52 3.58 2.55 6.26.15 12.08-14.511 32.22-29.11 46.81l-3.497 3.57c-7.613 7.81-21.779 22.35-31.063 22.34-1.307 0-3.091-.27-5.276-2.46Zm200.485 9.97c-3 0-5.988.55-8.953 1.32 3.629-7.57 5.978-15.37 6.005-23.12.034-10.08-3.667-18.93-11.003-26.3-5.913-5.94-13.322-9.09-21.433-9.09-5.217 0-10.443 1.28-15.656 3.45-.296-11.19-6.419-19.23-11.675-24.09-15.643-14.46-33.717-9.74-49.323-.07.055-.86.145-1.72.134-2.57-.096-7.95-3.087-14.95-8.648-20.24-4.969-4.73-11.051-7.23-17.587-7.23-16.566 0-32.036 15.57-44.461 28.08l-2.465 2.48c-6.769 6.77-19.397 20.26-27.879 34.52-14.853 24.99-8.97 39.22-1.424 46.77 5.377 5.38 12.004 8.22 19.159 8.22 3.303 0 6.549-.75 9.751-1.81-3.528 12.66-2.408 24.7 7.123 34.23 7.197 7.2 15.892 10.76 25.26 10.76 3.593 0 7.291-.59 11.034-1.64-1.42 10.5.781 20.33 8.854 28.4 6.515 6.51 14.192 9.81 22.821 9.82h.004c9.899 0 19.672-4.56 28.702-10.85-2.104 9.95-.821 19.52 6.194 27.59 4.713 5.42 11.159 8.28 18.65 8.28h.004c28.796 0 68.129-44.01 79.584-72.55 8.056-20.08 2.899-30.85-2.85-36.35-5.483-5.24-12.371-8.01-19.922-8.01ZM674.106 1065.62c0-42.82 67.259-91.61 99.587-115.056 7.002-5.085 12.54-9.096 16.245-12.164 22.196-18.369 68.842-29.337 124.792-29.337 43.181 0 78.853 19.918 101.16 36.615 28 20.985 116.41 21.322 126.15 21.345 5.42-.015 9.81-4.418 9.79-9.84-.01-5.415-4.41-9.794-9.82-9.794-.39-.008-.62 0-.93 0-35.26 0-96.42-4.686-113.41-17.426-24.71-18.491-64.352-40.534-112.94-40.534-61.28 0-111.325 12.333-137.309 33.846-3.222 2.661-8.798 6.711-15.263 11.397-37.528 27.228-107.303 77.838-107.686 130.508-.45 5.54-3.64 53.53 18.039 77.28 8.221 9 18.767 13.57 31.338 13.57 11.06 0 19.999-3.5 26.576-10.4 14.135-14.84 12.858-41.15 11.83-62.29-.399-8.23-.947-19.49.111-21.94 11.444-14.72 36.213-36.5 53.055-36.5 5.423 0 9.817-4.4 9.817-9.82s-4.394-9.82-9.817-9.82c-28.132 0-59.025 31.83-68.552 44.08-5.575 7.16-5.008 18.82-4.225 34.95.801 16.48 1.894 39.05-6.435 47.79-1.765 1.85-4.963 4.31-12.36 4.31-7.01 0-12.356-2.28-16.824-7.15-13.87-15.17-14.058-50.43-12.958-62.74.024-.29.039-.59.039-.88Z" style="fill:#fff;fill-rule:nonzero" transform="scale(4.16667)"/></svg>