<svg viewBox="0 0 173 178" xmlns="http://www.w3.org/2000/svg" xml:space="preserve" style="fill-rule:evenodd;clip-rule:evenodd;stroke-linejoin:round;stroke-miterlimit:2"><path d="M143.517 152.384c-15.758 15.007-35.983 23.14-57.325 23.14-1.328 0-2.659-.031-3.993-.094-20.97-.992-40.763-10.022-55.733-25.426C11.513 134.616 2.748 114.28 1.785 92.742.64 67.109 10.492 42.401 28.814 24.952 45.553 9.011 67.325.815 90.133 1.906c20.97.991 40.763 10.021 55.731 25.425 14.955 15.388 23.719 35.724 24.681 57.264 1.146 25.631-8.706 50.34-27.028 67.789Z" style="fill:#eb2128"/><path d="M134.362 137.633c-1.531.037-15.039.377-17.819 1.067-1.973.491-5.561-.379-6.778-.755a1.181 1.181 0 0 0-.701 2.257c.163.05 3.27 1.004 6.054 1.004.703 0 1.385-.06 1.995-.212 2.139-.53 13.217-.9 17.307-.997a1.182 1.182 0 0 0 1.152-1.21 1.19 1.19 0 0 0-1.21-1.154" style="fill:#231e1f;fill-rule:nonzero"/><path d="m132.262 98.382-43.395 1.941M96.151 99.667l6.036-12.967M102.186 99.726l10.127-12.734M112.313 99.274l7.011-10.159M120.444 98.91l3.955-7.179M120.444 98.91l4.839 6.504M112.313 99.274l6.354 10.372M102.186 99.726l4.613 8.245M96.151 99.667l2.957 9.385M76.873 100.323l-4.609-12.322M68.935 100.323 66.289 87.84M61.35 100.323l-6.105-7.912M61.35 100.323l-6.105 8.889M68.935 100.323l-6.734 10.305M76.873 100.323l-5.186 8.889M98.041 87.694l.793.185" style="fill:none;fill-rule:nonzero"/><path d="M133.375 98.761c.046-.136.07-.277.065-.419 0-.005.003-.008.002-.012-.001-.023-.013-.041-.015-.064a1.156 1.156 0 0 0-.085-.339c-.02-.047-.046-.089-.073-.133-.025-.046-.042-.095-.074-.137-.323-.416-6.692-8.437-18.769-11.423 2.225-1.98 3.583-4.808 3.583-7.745 0-4.522-2.873-7.534-4.275-8.736a9.301 9.301 0 0 0 .7-3.245c.106-3.222-1.441-6.448-4.247-8.85-2.025-1.733-4.536-2.573-6.929-2.943-.011-.027-.009-.056-.023-.082-.155-.295-3.874-7.223-12.868-7.223-6.571 0-10.152 3.139-11.657 4.917a7.154 7.154 0 0 0-3.176-1.409c-3.174-.55-6.544.942-9.016 3.982-3.717 4.573-3.53 9.723-3.286 11.694-3.324 2.126-6.415 5.622-6.415 11.28 0 3.703 1.155 7.17 3.436 10.327-8.28 3.429-13.695 11.031-13.985 11.444-.039.056-.066.117-.094.178-.009.02-.022.037-.031.058a1.187 1.187 0 0 0-.08.4c-.001.015-.009.027-.009.042 0 .016.009.03.01.046a1.174 1.174 0 0 0 .086.417c.173.426 2.906 6.811 10.574 10.608-4.59 1.331-9.863 2.541-16.73 2.541a1.182 1.182 0 1 0 0 2.364c8.879 0 15.129-1.92 20.643-3.614 4.001-1.23 7.457-2.291 11.05-2.291 7.449 0 11.185 3.81 11.243 3.87l2.482 2.481a1.179 1.179 0 0 0 1.672 0 1.182 1.182 0 0 0 0-1.671l-.562-.561V96.394c0-.32.261-.582.581-.582.321 0 .582.262.582.582v17.24a1.182 1.182 0 1 0 2.364 0v-4.852c.798.851 1.84 1.754 3.192 2.576a1.182 1.182 0 1 0 1.228-2.021c-2.923-1.776-4.127-3.998-4.42-4.618v-3.265l5.35-.24 2.581 8.193a1.182 1.182 0 1 0 2.254-.711l-2.39-7.591 3.668-.164 4.256 7.607a1.18 1.18 0 0 0 1.608.455c.57-.319.773-1.04.455-1.61l-3.676-6.571 7.516-.335 5.298 8.648c-.3.136-.596.274-.903.402a1.181 1.181 0 1 0 .906 2.183 35.3 35.3 0 0 0 2.252-1.04c.02-.01.042-.015.062-.026.005-.003.007-.009.012-.012 8.735-4.391 13.703-11.26 13.927-11.575.041-.057.061-.124.091-.186.019-.041.044-.077.059-.12m-35.488-.025 5.124-11.007c.733-.149 1.462-.24 2.174-.24 1.733 0 3.38.128 4.949.346l-8.538 10.735-3.709.166Zm-18.953-40.09a6.84 6.84 0 0 1 .933-.661c.941 1.184 2.869 3.085 5.79 3.508.393.057.789.086 1.187.086 2.061 0 4.205-.777 6.404-2.285-.687 1.442-1.893 3.279-4.021 5.317-1.03.985-2.189 1.44-3.519 1.394-3.278-.117-6.618-3.174-7.692-4.245.069-.604.149-1.214.254-1.836.041-.193.259-.917.664-1.278m3.905-.979c.533-.859 1.869-2.427 4.53-2.427 1.833 0 2.747 1.443 3.208 2.919-1.608.85-3.133 1.198-4.558.998-1.327-.187-2.394-.824-3.18-1.49m-5.021 7.111c1.824 1.526 4.735 3.477 7.798 3.589 1.993.065 3.75-.617 5.245-2.048 4.013-3.842 5.187-7.181 5.525-8.962.968.165 2.374.562 3.235 1.511.613.675.866 1.544.77 2.655-.227 2.642-3.291 8.653-8.589 11.227-4.082 1.985-8.519 1.493-13.189-1.448-.56-2.012-.827-4.188-.795-6.524m8.899 11.52c2.45 0 4.515-.642 6.119-1.422 5.893-2.863 9.486-9.31 9.888-12.987 2.114 1.725 5.513 5.59 5.513 12.633 0 5.11-1.597 8.809-4.62 10.698-.007.004-.01.011-.017.015-.585.076-1.17.197-1.755.344-.029.009-.058.013-.086.024a20.866 20.866 0 0 0-3.024 1.04l-.427-.1c-.022-.005-.042.002-.063-.002-.026-.004-.047-.018-.071-.021-.107-.012-10.722-1.306-16.54-9.037a18.005 18.005 0 0 1-1.725-2.788c2.502 1.155 4.788 1.603 6.808 1.603m26.065 12.004c1.682.367 3.245.847 4.707 1.391l-5.815 8.427-6.945.31 8.053-10.128Zm6.942 2.315a35.958 35.958 0 0 1 3.075 1.57l-3.071 5.573-5.091.227 5.087-7.37Zm5.084 2.821a34.77 34.77 0 0 1 4.842 3.877l-7.155.321 2.313-4.198Zm-9.163-14.949c0 2.897-1.723 5.673-4.394 7.109a38.57 38.57 0 0 0-3.996-.413c1.816-2.073 3.346-5.382 3.346-10.663 0-.213-.021-.404-.027-.612a11.538 11.538 0 0 0 1.965-2.053c1.175 1.102 3.106 3.405 3.106 6.632m-3.573-12.059c-.054 1.634-.667 3.141-1.771 4.453-1.328-8.104-6.822-11.502-7.979-12.131a5.277 5.277 0 0 0-.951-1.473 5.825 5.825 0 0 0-.418-.414c2.563.127 5.532.735 7.697 2.589 2.256 1.932 3.504 4.475 3.422 6.976M90.367 49.774c5.407 0 8.53 2.943 9.913 4.694-2.824-.049-5.006.395-5.191.435-.029.006-.051.026-.079.035-.042.012-.083.017-.124.033-.025.011-.043.031-.066.043-.012.005-.021.014-.031.02a1.07 1.07 0 0 0-.196.125c-.024.02-.053.027-.076.048a21.894 21.894 0 0 1-1.911 1.638c-.99-2.534-2.83-3.969-5.237-3.969-3.247 0-5.136 1.646-6.124 2.948a8.67 8.67 0 0 0-.906-1.764c1.045-1.324 4.048-4.286 10.028-4.286m-22.015 6.618c1.925-2.368 4.458-3.545 6.78-3.144a4.792 4.792 0 0 1 2.796 1.552c.009.013.023.023.033.036.282.321.535.68.749 1.084-.434.26-.934.594-1.346.958-.698.622-1.072 1.472-1.258 2.031-.972.568-3.278 2.089-5.33 4.686-.919.184-2.993.68-5.275 1.753-.09-2.025.196-5.69 2.851-8.956m-9.171 21.482c0-4.204 2.039-7.491 6.063-9.772a19.64 19.64 0 0 1 3.654-1.581 16.724 16.724 0 0 0-1.25 3.169c-1.416 5.118-.375 10.817 3.078 16.96a31.42 31.42 0 0 0-2.508-.104c-1.968 0-3.847.305-5.618.822-2.26-2.899-3.419-6.087-3.419-9.494m20.36 31.583c-1.575-.622-3.529-1.136-5.851-1.334l3.861-6.618h6.607v3.218c-.294.636-1.514 2.912-4.61 4.729l-.007.005m-14.902-.4 4.935-7.552h5.241l-3.821 6.548c-2.152.071-4.223.451-6.355 1.004m-4.443 1.291-.319-.145a21.755 21.755 0 0 1-2.938-1.371l5.032-7.327h4.779l-5.539 8.477c-.013.02-.014.043-.025.064-.327.099-.657.199-.99.302m5.163-21.189 2.117 9.982H61.93l-4.989-6.467c2.44-1.616 5.288-2.976 8.418-3.515m6.05-.07 3.759 10.052h-5.276l-2.167-10.217c.165-.005.328-.014.493-.014 1.133 0 2.189.069 3.191.179m12.749 7.305v2.747h-6.466l-3.593-9.609c6.131 1.353 9.237 4.537 10.059 5.51v1.352ZM55.02 94.056l3.924 5.085h-9.251a37.977 37.977 0 0 1 5.327-5.085m-5.813 7.449h9.897l-4.168 6.068c-2.958-2.102-4.771-4.512-5.729-6.068m32.807 9.152a14.852 14.852 0 0 0 2.144-1.877v3.398a14.3 14.3 0 0 0-2.144-1.521m5.089-17.209c-.365 0-.712.076-1.035.198-.92-1.124-4.725-5.179-12.362-6.597-3.856-6.179-5.133-11.797-3.787-16.701 1.104-4.022 3.783-6.73 5.675-8.216-.353 3.689-.055 7.057.842 10.107.011.073.038.139.062.209.719 2.357 1.791 4.526 3.259 6.473 4.641 6.152 11.75 8.569 15.553 9.463-3.702 2.177-6.535 4.721-7.133 5.274a2.906 2.906 0 0 0-1.074-.21m2.946 2.946v-1.24c1.235-1.097 5.388-4.6 9.908-6.465l-4.732 10.167-5.176.231v-2.693Zm24.32 3.972 5.501-.246 3.765 5.061a37.03 37.03 0 0 1-4.537 2.903l-4.729-7.718Zm11.12 3.345-2.767-3.719 6.934-.31a41.485 41.485 0 0 1-4.167 4.029M59.231 144.5c-6.947-8.943-18.961-6.65-19.469-6.55a1.184 1.184 0 0 0-.927 1.392 1.186 1.186 0 0 0 1.391.926c.112-.02 11.08-2.117 17.138 5.683a15.41 15.41 0 0 0 1.774 1.91 1.18 1.18 0 0 0 1.67-.078 1.182 1.182 0 0 0-.077-1.669 12.932 12.932 0 0 1-1.5-1.614M109.312 137.294l-.321-.316-15.495-15.491a1.18 1.18 0 1 0-1.671 1.671c6.354 6.355 14.729 14.728 15.495 15.492l.339.334c1.215 1.189 4.444 4.348 4.458 6.723.002.587-.2 1.065-.639 1.503-.636.637-1.34.921-2.073.933-1.632-.018-3.162-1.415-3.49-1.735a31.294 31.294 0 0 0-1.905-1.794c-.235-.208-.426-.377-.545-.495l-5.109-5.109-1.672 1.672 5.11 5.109c.142.143.368.345.649.594 1.101.973 3.68 3.252 3.733 4.972.012.426-.148.79-.503 1.146-.545.544-1.103.803-1.701.768-1.217-.056-2.447-1.231-2.818-1.677l-.007-.006a12.558 12.558 0 0 0-1.144-1.32l-6.147-6.15-1.671 1.672 6.147 6.151c1.001 1 1.608 1.912 1.803 2.709.196.8-.029 1.468-.73 2.167-1.165 1.165-2.901.325-3.489-.016a6.738 6.738 0 0 0-1.037-1.358c-1.428-1.429-5.091-5.553-5.128-5.594a1.181 1.181 0 1 0-1.767 1.569c.152.171 3.745 4.218 5.224 5.696.609.609 1.024 1.373 1.137 2.096.122.771-.097 1.424-.666 1.995-.237.236-.505.32-.856.338-.792-.006-2.66-.569-6.244-4.269a1.182 1.182 0 0 0-1.698 1.646c3.236 3.339 5.828 4.97 7.924 4.986h.031a3.48 3.48 0 0 0 2.514-1.03c.903-.902 1.374-2.036 1.382-3.249.394.086.805.142 1.224.142 1.066 0 2.175-.333 3.121-1.28.932-.932 1.429-1.996 1.479-3.125.408.137.835.245 1.292.268.071.003.142.005.212.005 1.194 0 2.325-.503 3.285-1.463.813-.813 1.226-1.813 1.193-2.89a4.396 4.396 0 0 0-.127-.88c.309.059.627.098.953.103h.073c1.385 0 2.634-.547 3.713-1.626.889-.888 1.337-1.961 1.331-3.187-.019-3.362-3.628-6.893-5.169-8.4" style="fill:#fff;fill-rule:nonzero"/><path d="M84.794 151.116c-.361 0-.721.066-1.078.158.437-.911.72-1.851.723-2.783.004-1.214-.441-2.28-1.325-3.167-.712-.715-1.604-1.093-2.58-1.093-.628 0-1.258.153-1.885.414-.036-1.346-.773-2.315-1.406-2.9-1.883-1.741-4.059-1.172-5.938-.008.006-.103.017-.207.016-.309-.012-.957-.372-1.801-1.041-2.437-.599-.57-1.331-.871-2.118-.871-1.994 0-3.857 1.875-5.353 3.381l-.297.298c-.815.815-2.335 2.439-3.356 4.157-1.788 3.008-1.08 4.722-.172 5.631.648.647 1.446.989 2.307.989.398 0 .789-.091 1.174-.217-.425 1.524-.29 2.973.858 4.12.866.867 1.913 1.297 3.041 1.296a4.94 4.94 0 0 0 1.328-.197c-.171 1.263.095 2.447 1.066 3.418.785.785 1.709 1.182 2.748 1.183 1.192 0 2.369-.548 3.456-1.306-.253 1.198-.099 2.349.746 3.321.567.653 1.344.998 2.245.998h.001c3.467 0 8.203-5.299 9.582-8.735.97-2.417.349-3.715-.343-4.376a3.41 3.41 0 0 0-2.399-.965m-24.138-1.201c-.602-.601.075-1.982.532-2.752.889-1.495 2.259-2.955 2.995-3.692l.303-.304c.997-1.004 2.666-2.683 3.676-2.683.128 0 .285.025.488.218.209.199.303.432.307.754.018 1.455-1.747 3.879-3.505 5.637l-.421.429c-.917.94-2.622 2.691-3.74 2.69-.157 0-.372-.033-.635-.297m4.339 4.893c-1.377-1.375 1.197-5.186 4.356-8.351 3.162-3.156 5.1-4.074 6.288-2.976.448.415 1.366 1.272-.381 3.475a46.695 46.695 0 0 0-1.918 1.825c-1.427 1.428-3.184 3.4-4.37 5.437-.991.834-2.692 1.873-3.975.59m5.435 4.517c-1.48-1.479 1.235-5.522 4.582-8.872.502-.502 1.165-1.165 1.886-1.799.03-.03.069-.046.097-.08l.01-.013c1.188-1.033 2.516-1.966 3.529-1.966.353 0 .631.122.904.396.437.439.639.913.637 1.492-.008 2.315-3.213 5.492-4.582 6.848l-.331.328c-.168.168-.349.354-.544.554-1.313 1.347-3.51 3.602-5.112 3.602-.4-.001-.742-.156-1.076-.49m14.912-3.749c-1.278 3.186-5.422 7.252-7.389 7.252-.249 0-.364-.075-.461-.185-.904-1.04.607-3.906 3.674-6.968 1.376-1.374 2.733-2.195 3.628-2.195.305 0 .541.095.764.309.175.167.181.797-.216 1.787M78.055 128.407c0-5.154 8.098-11.029 11.99-13.852.844-.613 1.51-1.095 1.956-1.465 2.672-2.211 8.289-3.531 15.025-3.531 5.199 0 9.494 2.398 12.18 4.408 3.37 2.527 14.015 2.567 15.187 2.569a1.18 1.18 0 0 0-.003-2.364h-.112c-4.245 0-11.609-.563-13.655-2.097-2.974-2.227-7.748-4.88-13.597-4.88-7.378 0-13.404 1.484-16.532 4.074-.388.321-1.06.809-1.838 1.372-4.518 3.279-12.919 9.372-12.965 15.713-.054.669-.438 6.446 2.172 9.305.99 1.084 2.26 1.634 3.773 1.634 1.332 0 2.408-.421 3.2-1.252 1.702-1.788 1.548-4.955 1.424-7.5-.048-.991-.114-2.347.013-2.642 1.378-1.772 4.36-4.394 6.389-4.394a1.182 1.182 0 0 0 0-2.364c-3.387 0-7.107 3.831-8.254 5.307-.672.861-.603 2.264-.509 4.208.096 1.983.228 4.701-.775 5.753-.212.223-.597.52-1.488.52-.844 0-1.488-.275-2.026-.862-1.67-1.826-1.692-6.071-1.56-7.554.003-.035.005-.071.005-.106" style="fill:#231e1f;fill-rule:nonzero"/><path d="M167.16 94.121c-2.575 41.198-34.538 74.609-74.536 77.81C44.967 175.745 5 136.92 5 88.668c0-1.55.046-3.089.129-4.618a85.748 85.748 0 0 1 2.065-14.612 7.257 7.257 0 0 1 3.741-4.832l66.956-34.302a4.739 4.739 0 0 1 4.757.247l24.516 15.921a2.408 2.408 0 0 0 2.463.101l8.735-4.711a4.742 4.742 0 0 1 4.775.154l39.184 24.47c1.646 1.028 2.801 2.712 3.205 4.649a86.068 86.068 0 0 1 1.634 22.986M11.62 55.672C24.077 25.983 52.795 5.145 86.166 5.145c33.391 0 62.126 20.863 74.57 50.583.66 1.577-1.041 3.1-2.468 2.209L123.12 35.988a4.342 4.342 0 0 0-4.375-.141l-8.708 4.696a2.752 2.752 0 0 1-2.813-.116L82.745 24.53a4.342 4.342 0 0 0-4.359-.227L13.531 57.529c-1.164.596-2.426-.63-1.911-1.857m160.617 28.834C170.205 39.022 134.411 2.187 90.21.096 39.512-2.302-2.238 40.66.093 92.83c2.032 45.484 37.827 82.319 82.028 84.41 50.698 2.398 92.447-40.564 90.116-92.734" style="fill:#231e1f;fill-rule:nonzero"/></svg>